<?xml version="1.0" encoding="utf-8"?>
<!-- Generator: Adobe Illustrator 18.0.0, SVG Export Plug-In . SVG Version: 6.00 Build 0)  -->
<!DOCTYPE svg PUBLIC "-//W3C//DTD SVG 1.1//EN" "http://www.w3.org/Graphics/SVG/1.1/DTD/svg11.dtd">
<svg version="1.1" xmlns="http://www.w3.org/2000/svg" xmlns:xlink="http://www.w3.org/1999/xlink" x="0px" y="0px"
	 viewBox="0 0 198.6 208.5" enable-background="new 0 0 198.6 208.5" xml:space="preserve">
<g id="left_arm" display="none">
	<path display="inline" fill="#FFCC80" d="M7.2,195.6l-25.7,68.5c-4,10.7-15.9,16.1-26.5,12.1l0,0c-10.7-4-16.1-15.9-12.1-26.5
		l25.7-68.5c4-10.7,15.9-16.1,26.5-12.1l0,0C5.8,173.1,11.2,184.9,7.2,195.6z"/>
</g>
<g id="left_forearm" display="none">
	<path display="inline" fill="#FFCC80" d="M-12.6,167.9l60.4-2.8c12-0.6,22.2,8.7,22.8,20.8v0c0.6,12-8.7,22.2-20.8,22.8l-60.4,2.8
		c-12,0.6-22.2-8.7-22.8-20.8l0,0C-33.9,178.6-24.7,168.4-12.6,167.9z"/>
	<path display="inline" fill="#1A237E" d="M2.4,162.5l48.4-2.3c14.6-0.7,27,10.6,27.7,25.2v0c0.7,14.6-10.6,27-25.2,27.7l-48.4,2.3
		L2.4,162.5z"/>
</g>
<g id="left_thigh" display="none">
</g>
<g id="left_shin" display="none">
</g>
<g id="left_foot" display="none">
</g>
<g id="head">
	<path fill="#FFE0B2" d="M171,159.6c-42.3,8.6-17.5,65.8-68.9,44s-61.1-70.4-49.8-102.4C87.9,0.7,180.1,79.6,162.9,92.1
		C140.2,108.5,246.6,144.2,171,159.6z"/>
	<path fill="#FFCC80" d="M73.7,122.2c-18.9,38.8,79.8,103.2,28.5,81.3s-61.1-70.4-49.8-102.4C87.9,0.7,180.1,79.6,162.9,92.1
		C162.9,92.1,107.7,52.2,73.7,122.2z"/>
	<path fill="#FFCC80" d="M171,159.6c-6.6,1.3-11.5,3.8-15.4,7c0,0-4.3-29.1,19.4-19.4c7.6,3.1,20.5,2.8,20.5,2.8
		C191.8,153.6,184.2,156.9,171,159.6z"/>
	<path fill="#212121" d="M157.8,87.2C94.4,19,69.9,162.3,31.3,154.4C-7.2,146.5-13.1,33.7,30,38.9C31,16.5,48.8-4,87.9,0.7
		C187.5,12.7,198.9,131.4,157.8,87.2z"/>
	<path d="M157.8,87.2C94.4,19,69.9,162.3,31.3,154.4c-18.6-3.8-29.6-32.2-31.1-59.9C-1.4,65,51,41.4,90.1,46.1
		C174.1,56.2,173,97,173,97C169.3,97,164.2,94.1,157.8,87.2z"/>
	<circle fill="#FFE0B2" cx="68.4" cy="102.5" r="20.2"/>
	<path fill="#FFCC80" d="M53.8,94.8c4.3-7.3,13.7-9.7,21.1-5.4c7.3,4.3,9.7,13.7,5.4,21.1c0,0,1.3-11.3-7.7-16.4
		C64.3,89.3,53.8,94.8,53.8,94.8z"/>
	<circle fill="#212121" cx="143.1" cy="98.7" r="3.9"/>
</g>
<g id="body" display="none">
	<path display="inline" fill="#303F9F" d="M87.9,205.5c-3,18.6-11.9,39.4-21.8,59.3c-2.8,5.7-5.7,11.6-8.7,17.4
		C36.6,322.9,10.2,361.7-46,318.5c-57-43.9,4.6-78.6,35.2-118.8c28.6-37.5,46.4-50,61.2-49.9c3.4,0,6.7,0.7,9.9,2
		c3.5,1.3,6.6,2.9,9.4,4.6c3.9,2.4,7,5.1,9.7,8.1c5.6,6.5,8.5,14.3,9.2,23C89.3,193.1,88.9,199.2,87.9,205.5z"/>
	<path display="inline" fill="#FF5252" d="M9.8,185.1c-23.4,35-34.8,44-34.8,44l-7.7-4.7c7.8-8.1,15.6-16.3,22-24.7
		c28.6-37.5,46.4-50,61.2-49.9C53.9,149.8,26.4,160.4,9.8,185.1z"/>
	<path display="inline" fill="#FFEB3B" d="M6.4,186.6c-27.5,31.8-23.6,21.5-17.1,13.1c14.5-19.1,26.3-31.7,36.3-39.5
		C25.6,160.2,25.7,164.3,6.4,186.6z"/>
	<path display="inline" fill="#FF5252" d="M69.8,156.3L2.2,249.8l-15.8-11.4l48.1-66.5c0,0,24.8-20.5,25.9-20.1
		C63.9,153,67.1,154.6,69.8,156.3z"/>
	<path display="inline" fill="#FF5252" d="M88.7,187.4L39.5,273l-16.9-9.7l56.9-98.9C85.1,170.8,88,178.7,88.7,187.4z"/>
	<path display="inline" fill="#FF5252" d="M87.9,205.5c-3,18.6-11.9,39.4-21.8,59.3c-2.8,5.7-5.7,11.6-8.7,17.4l-5.9-2.9L87.9,205.5
		z"/>
</g>
<g id="right_thigh" display="none">
</g>
<g id="right_shin" display="none">
</g>
<g id="right_foot" display="none">
</g>
<g id="right_arm" display="none">
</g>
<g id="right_forearm" display="none">
	<path display="inline" fill="#FFE0B2" d="M-28.4,285.1v-60.5c0-12,9.8-21.8,21.8-21.8h0c12,0,21.8,9.8,21.8,21.8v60.5
		c0,12-9.8,21.8-21.8,21.8h0C-18.7,306.9-28.4,297.1-28.4,285.1z"/>
	<path display="inline" fill="#3F51B5" d="M-33.1,268.3v-46.9c0-14.6,11.9-26.5,26.5-26.5h0c14.6,0,26.5,11.9,26.5,26.5v46.9H-33.1z
		"/>
</g>
</svg>
