<?xml version="1.0" encoding="utf-8"?>
<!-- Generator: Adobe Illustrator 18.0.0, SVG Export Plug-In . SVG Version: 6.00 Build 0)  -->
<!DOCTYPE svg PUBLIC "-//W3C//DTD SVG 1.1//EN" "http://www.w3.org/Graphics/SVG/1.1/DTD/svg11.dtd">
<svg version="1.1" id="Слой_1" xmlns="http://www.w3.org/2000/svg" xmlns:xlink="http://www.w3.org/1999/xlink" x="0px" y="0px"
	 viewBox="2334.4 0 225.5 100" enable-background="new 2334.4 0 225.5 100" xml:space="preserve">
<g id="left_arm" display="none">
</g>
<g id="left_forearm" display="none">
</g>
<g id="left_thigh" display="none">
</g>
<g id="left_shin" display="none">
</g>
<g id="left_foot" display="none">
</g>
<g id="head" display="none">
</g>
<g id="body" display="none">
	<path display="inline" fill="#303F9F" d="M2369.4-173.9c-6.1,37.6-24,79.6-44,119.8c-5.7,11.5-11.5,23.4-17.6,35.2
		c-42,82.2-95.4,160.6-208.9,73.3c-115.2-88.7,9.3-158.8,71.1-240c57.8-75.8,93.7-101,123.6-100.8c6.9,0,13.5,1.4,20,4
		c7.1,2.6,13.3,5.9,19,9.3c7.9,4.8,14.1,10.3,19.6,16.4c11.3,13.1,17.2,28.9,18.6,46.5C2372.3-199,2371.4-186.7,2369.4-173.9z"/>
</g>
<g id="right_thigh" display="none">
	<path display="inline" fill="#FFE0B2" d="M2364.1,120L2364.1,120c-18.2,25.7-53.7,31.5-79.2,13.3l-41.4-29.5
		c-25.7-18.2-31.5-53.7-13.3-79.2l0,0c18.1-25.6,53.7-31.5,79.1-13.3l41.2,29.5C2376.1,59,2382.1,94.5,2364.1,120z"/>
</g>
<g id="right_shin" display="none">
	<path display="inline" fill="#FFE0B2" d="M2293.8,240.2L2293.8,240.2c-30.7-6.7-50.1-37-43.2-67.7l20-90.7
		c6.7-30.7,37-50.1,67.5-43.4l0,0c30.7,6.7,50.1,37,43.2,67.7l-20,90.7C2354.8,227.7,2324.4,247.1,2293.8,240.2z"/>
</g>
<g id="right_foot">
	<path fill="#FBC02D" d="M2559.9,73.7c-0.2,31.7-58.4,26.1-117.8,25.7c-59.4-0.4-107.9,5.7-107.7-26.3c0.2-32,10.8-73.3,70.2-73.1
		C2464.1,0.2,2559.9,42,2559.9,73.7z"/>
</g>
<g id="right_arm" display="none">
	<path display="inline" fill="#FFE0B2" d="M2405.6,57.8V-89.9c0-23,18.6-41.6,41.6-41.6l0,0c23,0,41.6,18.6,41.6,41.6V57.8
		c0,23-18.6,41.6-41.6,41.6l0,0C2424.3,99.4,2405.6,80.8,2405.6,57.8z"/>
</g>
<g id="right_forearm" display="none">
</g>
</svg>
