<?xml version="1.0" encoding="utf-8"?>
<!-- Generator: Adobe Illustrator 18.0.0, SVG Export Plug-In . SVG Version: 6.00 Build 0)  -->
<!DOCTYPE svg PUBLIC "-//W3C//DTD SVG 1.1//EN" "http://www.w3.org/Graphics/SVG/1.1/DTD/svg11.dtd">
<svg version="1.1" id="Слой_1" xmlns="http://www.w3.org/2000/svg" xmlns:xlink="http://www.w3.org/1999/xlink" x="0px" y="0px"
	 viewBox="1256.3 0 47.3 100.1" enable-background="new 1256.3 0 47.3 100.1" xml:space="preserve">
<g id="left_arm" display="none">
	<path display="inline" fill="#FFCC80" d="M1292.3,0.6l-22.9,61.2c-3.6,9.6-14.2,14.4-23.7,10.8l0,0c-9.6-3.6-14.4-14.2-10.8-23.7
		l22.9-61.2c3.6-9.6,14.2-14.4,23.7-10.8l0,0C1291.1-19.5,1295.9-8.8,1292.3,0.6z"/>
</g>
<g id="left_forearm" display="none">
	<path display="inline" fill="#FFCC80" d="M1274.6-24.1l53.9-2.5c10.7-0.5,19.8,7.8,20.4,18.6l0,0c0.5,10.7-7.8,19.8-18.6,20.4
		l-53.9,2.5c-10.7,0.4-19.8-7.9-20.3-18.6l0,0C1255.6-14.5,1263.9-23.6,1274.6-24.1z"/>
	<path display="inline" fill="#1A237E" d="M1288.1-28.9l43.2-2.1c13-0.6,24.1,9.5,24.7,22.5l0,0c0.6,13-9.5,24.1-22.5,24.7
		l-43.2,2.1L1288.1-28.9z"/>
</g>
<g id="left_thigh" display="none">
	<path display="inline" fill="#FFE0B2" d="M1258.5,89.4L1258.5,89.4c3.3,13.5-4.8,27.1-18.3,30.4l-21.8,5.4
		c-13.5,3.3-27.1-4.8-30.4-18.3l0,0c-3.3-13.5,4.8-27.1,18.3-30.4l21.8-5.4C1241.5,67.8,1255.1,76,1258.5,89.4z"/>
	<path display="inline" fill="#1A237E" d="M1240.4,128L1226,61.7l48-10.4c18.3-3.9,36.3,7.7,40.4,26l0,0c4,18.3-7.7,36.3-26,40.4
		L1240.4,128z"/>
</g>
<g id="left_shin" display="none">
</g>
<g id="left_foot" display="none">
</g>
<g id="head" display="none">
</g>
<g id="body" display="none">
	<path display="inline" fill="#303F9F" d="M1364.4,9.6c-2.7,16.6-10.6,35.2-19.5,52.9c-2.5,5.1-5.1,10.4-7.8,15.5
		c-18.5,36.3-42.1,71-92.2,32.4c-50.9-39.2,4.1-70.2,31.4-106.1c25.5-33.5,41.4-44.6,54.6-44.6c3,0,6,0.6,8.8,1.8
		c3.1,1.2,5.9,2.6,8.4,4.1c3.5,2.1,6.3,4.6,8.7,7.2c5,5.8,7.6,12.8,8.2,20.5C1365.6-1.6,1365.3,3.8,1364.4,9.6z"/>
	<path display="inline" fill="#FF5252" d="M1294.7-8.8c-20.9,31.3-31.1,39.3-31.1,39.3l-6.9-4.2c7-7.2,13.9-14.6,19.6-22.1
		c25.5-33.5,41.4-44.6,54.6-44.6C1334.1-40.3,1309.5-30.8,1294.7-8.8z"/>
	<path display="inline" fill="#FFEB3B" d="M1291.7-7.4c-24.6,28.4-21.1,19.2-15.4,11.7c13-17.1,23.5-28.3,32.4-35.3
		C1308.8-31,1308.8-27.2,1291.7-7.4z"/>
	<path display="inline" fill="#FF5252" d="M1348.3-34.5L1287.9,49l-14.1-10.2l42.9-59.4c0,0,22.1-18.3,23.1-17.9
		C1343-37.3,1345.8-36,1348.3-34.5z"/>
</g>
<g id="right_thigh" display="none">
	<path display="inline" fill="#FFE0B2" d="M1362,139.5L1362,139.5c-8,11.3-23.8,13.9-35,5.9l-18.3-13c-11.3-8-13.9-23.8-5.9-35l0,0
		c8-11.3,23.8-13.9,35-5.9l18.3,13C1367.3,112.4,1370,128.1,1362,139.5z"/>
	<path display="inline" fill="#303F9F" d="M1342.8,85l-39.3,55.4l-39.3-27.9c-15.3-10.9-18.8-32.1-8-47.3l0,0
		c10.9-15.3,32.1-18.8,47.3-8L1342.8,85z"/>
</g>
<g id="right_shin" display="none">
</g>
<g id="right_foot" display="none">
</g>
<g id="right_arm" display="none">
</g>
<g id="right_forearm">
	<path fill="#FFCC80" d="M1260.5,80.5v-54c0-10.7,8.8-19.4,19.5-19.4l0,0c10.7,0,19.5,8.8,19.5,19.5v54c0,10.7-8.8,19.5-19.5,19.5
		l0,0C1269.3,100,1260.5,91.3,1260.5,80.5z"/>
	<path fill="#303F9F" d="M1256.3,65.5V23.7c0-13,10.6-23.7,23.7-23.7l0,0c13,0,23.7,10.6,23.7,23.7v41.9H1256.3z"/>
</g>
</svg>
