<?xml version="1.0" encoding="utf-8"?>
<!-- Generator: Adobe Illustrator 18.0.0, SVG Export Plug-In . SVG Version: 6.00 Build 0)  -->
<!DOCTYPE svg PUBLIC "-//W3C//DTD SVG 1.1//EN" "http://www.w3.org/Graphics/SVG/1.1/DTD/svg11.dtd">
<svg version="1.1" id="Слой_1" xmlns="http://www.w3.org/2000/svg" xmlns:xlink="http://www.w3.org/1999/xlink" x="0px" y="0px"
	 viewBox="1252.5 0 55 100" enable-background="new 1252.5 0 55 100" xml:space="preserve">
<g id="left_arm" display="none">
</g>
<g id="left_forearm" display="none">
</g>
<g id="left_thigh" display="none">
</g>
<g id="left_shin" display="none">
</g>
<g id="left_foot" display="none">
</g>
<g id="head" display="none">
</g>
<g id="body" display="none">
	<path display="inline" fill="#303F9F" d="M1259.8-88.1c-2.9,18.2-11.6,38.5-21.3,58c-2.7,5.6-5.6,11.3-8.5,17
		c-20.3,39.7-46.1,77.6-101,35.4c-55.7-42.9,4.5-76.8,34.4-116.1c28-36.7,45.4-48.9,59.8-48.8c3.3,0,6.5,0.7,9.7,2
		c3.4,1.3,6.5,2.8,9.2,4.5c3.8,2.3,6.8,5,9.5,7.9c5.5,6.4,8.3,14,9,22.5C1261.2-100.3,1260.8-94.3,1259.8-88.1z"/>
</g>
<g id="right_thigh" display="none">
	<path display="inline" fill="#FFE0B2" d="M1257.2,54.2L1257.2,54.2c-8.8,12.3-26,15.2-38.4,6.5l-20-14.3
		c-12.4-8.8-15.2-26-6.5-38.3l0,0c8.8-12.4,26-15.2,38.3-6.5l20,14.3C1263,24.5,1266,41.7,1257.2,54.2z"/>
</g>
<g id="right_shin">
	<path fill="#FFCC80" d="M1280,100L1280,100c-15.2,0-27.5-12.3-27.5-27.6v-45c0-15.2,12.3-27.5,27.5-27.5l0,0
		c15.2,0,27.5,12.3,27.5,27.5v45C1307.5,87.7,1295.2,100,1280,100z"/>
	<path fill="#1A237E" d="M1280,100L1280,100c-15.2,0-27.5-12.3-27.5-27.6V48.2h55v24.2C1307.5,87.7,1295.2,100,1280,100z"/>
</g>
<g id="right_foot" display="none">
	<path display="inline" fill="#CDDC39" d="M1352,31.8c-0.1,15.3-28.3,12.6-57,12.4c-28.8-0.2-52.1,2.6-52.1-12.7
		c0.1-15.4,5.2-35.6,34-35.5C1305.7-3.8,1352.1,16.3,1352,31.8z"/>
</g>
<g id="right_arm" display="none">
	<path display="inline" fill="#FFE0B2" d="M1277.3,24v-71.5c0-11.1,9-20.1,20.1-20.1l0,0c11.1,0,20.1,9,20.1,20.1V24
		c0,11.1-9,20.1-20.1,20.1l0,0C1286.4,44.2,1277.3,35.1,1277.3,24z"/>
</g>
<g id="right_forearm" display="none">
</g>
</svg>
