<?xml version="1.0" encoding="utf-8"?>
<!-- Generator: Adobe Illustrator 18.0.0, SVG Export Plug-In . SVG Version: 6.00 Build 0)  -->
<!DOCTYPE svg PUBLIC "-//W3C//DTD SVG 1.1//EN" "http://www.w3.org/Graphics/SVG/1.1/DTD/svg11.dtd">
<svg version="1.1" xmlns="http://www.w3.org/2000/svg" xmlns:xlink="http://www.w3.org/1999/xlink" x="0px" y="0px"
	 viewBox="0 0 56.3 102.3" enable-background="new 0 0 56.3 102.3" xml:space="preserve">
<g id="left_arm" display="none">
</g>
<g id="left_forearm" display="none">
</g>
<g id="left_thigh" display="none">
</g>
<g id="left_shin" display="none">
</g>
<g id="left_foot" display="none">
</g>
<g id="head" display="none">
</g>
<g id="body" display="none">
	<path display="inline" fill="#303F9F" d="M7.5-90.1c-3,18.6-11.9,39.4-21.8,59.3c-2.8,5.7-5.7,11.6-8.7,17.4
		C-43.8,27.2-70.2,66-126.3,22.8c-57-43.9,4.6-78.6,35.2-118.8c28.6-37.5,46.4-50,61.2-49.9c3.4,0,6.7,0.7,9.9,2
		c3.5,1.3,6.6,2.9,9.4,4.6c3.9,2.4,7,5.1,9.7,8.1c5.6,6.5,8.5,14.3,9.2,23C8.9-102.6,8.5-96.5,7.5-90.1z"/>
</g>
<g id="right_thigh" display="none">
	<path display="inline" fill="#FFE0B2" d="M4.8,55.4L4.8,55.4C-4.2,68-21.8,71-34.5,62L-55,47.4c-12.7-9-15.6-26.6-6.6-39.2l0,0
		c9-12.7,26.6-15.6,39.2-6.6l20.5,14.6C10.8,25.1,13.8,42.7,4.8,55.4z"/>
</g>
<g id="right_shin">
	<path fill="#FFE0B2" d="M28.1,102.3L28.1,102.3C12.6,102.3,0,89.7,0,74.1l0-46C0,12.6,12.6,0,28.1,0l0,0
		c15.5,0,28.1,12.6,28.1,28.1l0,46C56.3,89.7,43.7,102.3,28.1,102.3z"/>
	<path fill="#303F9F" d="M28.1,102.3L28.1,102.3C12.6,102.3,0,89.7,0,74.1l0-24.8l56.3,0l0,24.8C56.3,89.7,43.7,102.3,28.1,102.3z"
		/>
</g>
<g id="right_foot" display="none">
	<path display="inline" fill="#CDDC39" d="M101.8,32.5c-0.1,15.7-28.9,12.9-58.3,12.7C14,45-9.8,47.9-9.8,32.2
		C-9.7,16.4-4.5-4.2,25-4.1C54.4-3.9,101.9,16.7,101.8,32.5z"/>
</g>
<g id="right_arm" display="none">
	<path display="inline" fill="#FFE0B2" d="M25.4,24.6l0-73.1c0-11.4,9.2-20.6,20.6-20.6h0c11.4,0,20.6,9.2,20.6,20.6l0,73.1
		c0,11.4-9.2,20.6-20.6,20.6h0C34.7,45.2,25.4,35.9,25.4,24.6z"/>
</g>
<g id="right_forearm" display="none">
</g>
</svg>
