<?xml version="1.0" encoding="utf-8"?>
<!-- Generator: Adobe Illustrator 18.0.0, SVG Export Plug-In . SVG Version: 6.00 Build 0)  -->
<!DOCTYPE svg PUBLIC "-//W3C//DTD SVG 1.1//EN" "http://www.w3.org/Graphics/SVG/1.1/DTD/svg11.dtd">
<svg version="1.1" xmlns="http://www.w3.org/2000/svg" xmlns:xlink="http://www.w3.org/1999/xlink" x="0px" y="0px"
	 viewBox="0 0 76 144.8" enable-background="new 0 0 76 144.8" xml:space="preserve">
<g id="left_arm" display="none">
	<path display="inline" fill="#FFCC80" d="M27.3-51L1.6,17.5c-4,10.7-15.9,16.1-26.5,12.1l0,0C-35.6,25.5-41,13.6-37,3l25.7-68.5
		c4-10.7,15.9-16.1,26.5-12.1l0,0C25.9-73.5,31.3-61.7,27.3-51z"/>
</g>
<g id="left_forearm" display="none">
</g>
<g id="left_thigh" display="none">
	<path display="inline" fill="#1A237E" d="M-30.9,91.7L-47,17.4L6.7,5.7c20.5-4.5,40.7,8.6,45.2,29.1l0,0
		c4.5,20.5-8.6,40.7-29.1,45.2L-30.9,91.7z"/>
</g>
<g id="left_shin" display="none">
</g>
<g id="left_foot" display="none">
</g>
<g id="head" display="none">
</g>
<g id="body" display="none">
	<path display="inline" fill="#303F9F" d="M108-41.1c-3,18.6-11.9,39.4-21.8,59.3c-2.8,5.7-5.7,11.6-8.7,17.4
		C56.7,76.3,30.3,115.1-25.9,71.9C-82.9,28-21.3-6.7,9.4-46.9c28.6-37.5,46.4-50,61.2-49.9c3.4,0,6.7,0.7,9.9,2
		c3.5,1.3,6.6,2.9,9.4,4.6c3.9,2.4,7,5.1,9.7,8.1c5.6,6.5,8.5,14.3,9.2,23C109.3-53.5,109-47.4,108-41.1z"/>
	<path display="inline" fill="#FF5252" d="M89.9-90.3L22.3,3.2L6.5-8.2l48.1-66.5c0,0,24.8-20.5,25.9-20.1
		C84-93.6,87.2-92,89.9-90.3z"/>
	<path display="inline" fill="#FF5252" d="M108.8-59.2L59.6,26.4l-16.9-9.7l56.9-98.9C105.2-75.7,108-67.9,108.8-59.2z"/>
	<path display="inline" fill="#FF5252" d="M108-41.1c-3,18.6-11.9,39.4-21.8,59.3c-2.8,5.7-5.7,11.6-8.7,17.4l-5.9-2.9L108-41.1z"/>
</g>
<g id="right_thigh">
	<path fill="#FFE0B2" d="M38.7,144.8L38.7,144.8c-15.5,0-28.1-12.6-28.1-28.1l0-25.2c0-15.5,12.6-28.1,28.1-28.1h0
		c15.5,0,28.1,12.6,28.1,28.1l0,25.2C66.9,132.2,54.3,144.8,38.7,144.8z"/>
	<path fill="#303F9F" d="M76,91.9l-76,0L0,38C0,17,17,0,38,0l0,0c21,0,38,17,38,38L76,91.9z"/>
</g>
<g id="right_shin" display="none">
</g>
<g id="right_foot" display="none">
</g>
<g id="right_arm" display="none">
</g>
<g id="right_forearm" display="none">
	<path display="inline" fill="#FFE0B2" d="M-8.4,38.5l0-60.5c0-12,9.8-21.8,21.8-21.8h0c12,0,21.8,9.8,21.8,21.8v60.5
		c0,12-9.8,21.8-21.8,21.8h0C1.4,60.3-8.4,50.6-8.4,38.5z"/>
	<path display="inline" fill="#3F51B5" d="M-13.1,21.7v-46.9c0-14.6,11.9-26.5,26.5-26.5h0c14.6,0,26.5,11.9,26.5,26.5v46.9H-13.1z"
		/>
</g>
</svg>
