<?xml version="1.0" encoding="utf-8"?>
<!-- Generator: Adobe Illustrator 18.0.0, SVG Export Plug-In . SVG Version: 6.00 Build 0)  -->
<!DOCTYPE svg PUBLIC "-//W3C//DTD SVG 1.1//EN" "http://www.w3.org/Graphics/SVG/1.1/DTD/svg11.dtd">
<svg version="1.1" id="Слой_1" xmlns="http://www.w3.org/2000/svg" xmlns:xlink="http://www.w3.org/1999/xlink" x="0px" y="0px"
	 viewBox="271 104.4 198.6 208.5" enable-background="new 271 104.4 198.6 208.5" xml:space="preserve">
<path fill="#FFE0B2" d="M442,264c-42.3,8.6-17.5,65.8-68.9,44s-61.1-70.4-49.8-102.4c35.5-100.5,127.7-21.7,110.5-9.2
	C411.1,213,517.6,248.7,442,264z"/>
<path fill="#FFCC80" d="M344.7,226.7c-18.9,38.8,79.8,103.2,28.5,81.3s-61.1-70.4-49.8-102.4c35.5-100.5,127.7-21.7,110.5-9.2
	C433.8,196.5,378.7,156.7,344.7,226.7z"/>
<path fill="#FFCC80" d="M442,264c-6.6,1.3-11.5,3.8-15.4,7c0,0-4.3-29.1,19.4-19.4c7.6,3.1,20.5,2.8,20.5,2.8
	C462.7,258.1,455.1,261.3,442,264z"/>
<path fill="#212121" d="M428.8,191.6c-63.4-68.2-87.9,75.1-126.5,67.2c-38.6-7.9-44.4-120.7-1.3-115.5c1-22.4,18.8-43,57.9-38.2
	C458.4,117.1,469.8,235.8,428.8,191.6z"/>
<path d="M428.8,191.6c-63.4-68.2-87.9,75.1-126.5,67.2c-18.6-3.8-29.6-32.2-31.1-59.9c-1.6-29.6,50.8-53.2,89.9-48.5
	c84.1,10.1,83,50.9,83,50.9C440.3,201.4,435.1,198.5,428.8,191.6z"/>
<circle fill="#FFE0B2" cx="339.3" cy="206.9" r="20.2"/>
<path fill="#FFCC80" d="M324.7,199.2c4.3-7.3,13.7-9.7,21.1-5.4s9.7,13.7,5.4,21.1c0,0,1.3-11.3-7.7-16.4
	C335.3,193.8,324.7,199.2,324.7,199.2z"/>
<circle fill="#212121" cx="414.1" cy="203.1" r="3.9"/>
</svg>
