<?xml version="1.0" encoding="utf-8"?>
<!-- Generator: Adobe Illustrator 18.0.0, SVG Export Plug-In . SVG Version: 6.00 Build 0)  -->
<!DOCTYPE svg PUBLIC "-//W3C//DTD SVG 1.1//EN" "http://www.w3.org/Graphics/SVG/1.1/DTD/svg11.dtd">
<svg version="1.1" id="Слой_1" xmlns="http://www.w3.org/2000/svg" xmlns:xlink="http://www.w3.org/1999/xlink" x="0px" y="0px"
	 viewBox="0 0 300 300" enable-background="new 0 0 300 300" xml:space="preserve">
<circle fill="#607D8B" cx="150" cy="150" r="150"/>
<g>
	<defs>
		<circle id="SVGID_1_" cx="150" cy="150" r="150"/>
	</defs>
	<clipPath id="SVGID_2_">
		<use xlink:href="#SVGID_1_"  overflow="visible"/>
	</clipPath>
	<g clip-path="url(#SVGID_2_)">
		<path fill="#FFFFFF" stroke="#607D8B" stroke-width="5" stroke-miterlimit="10" d="M115.6,297.2c-9.3-5.9-19.1-14.8-28.7-25.6
			c4.8-9.1,10.8-20,17.7-32.6c16.3,1.1,33.5,1.7,50.9,1.9c9,13.4,17.5,25.3,25.2,35.1c-8.4,10-16.2,17.8-22.8,22.9
			C143.6,298.7,129.4,298.1,115.6,297.2z"/>
		<path fill="#FFFFFF" stroke="#607D8B" stroke-width="5" stroke-miterlimit="10" d="M180.6,276c-7.7-9.8-16.2-21.7-25.2-35.1
			c8.4-13.2,17.5-27.8,26.7-43.2c18.2-0.1,36.1-0.5,53-1.1c7.9,14.7,14.9,28.4,20.9,40.5c-9.2,13.6-18.8,26.2-28.2,36.7
			C212.7,275,196.7,275.8,180.6,276z"/>
		<path fill="#FFFFFF" stroke="#607D8B" stroke-width="5" stroke-miterlimit="10" d="M47.2,265c-8.8-11.3-16.8-24.2-23.4-37.5
			c3-10.5,6.9-22.3,11.9-35.3c11.9,1.3,26.1,2.4,41.7,3.3c8.6,15.1,17.9,29.9,27.2,43.5c-6.9,12.6-12.9,23.5-17.7,32.6
			C72.5,269.9,59.1,267.7,47.2,265z"/>
		<path fill="#FFFFFF" stroke="#607D8B" stroke-width="5" stroke-miterlimit="10" d="M47.2,35.8c-3-8.7-5.2-15.8-6.9-22.1
			C49.4,5,59.7-1.4,70.4-4.1C82.2-4.2,94.1-4.3,106-4.4c2,0.5,5.1,3.1,9.6,8.1c-9.3,5.9-19.1,14.8-28.7,25.6
			C72.5,31,59.1,33.1,47.2,35.8z"/>
		<path fill="#FFFFFF" stroke="#607D8B" stroke-width="5" stroke-miterlimit="10" d="M180.6,24.8C172.2,14.8,164.4,7,157.8,2
			c7.7-5.2,14.4-7.6,19.7-6.6c11.9,0,23.9,0,35.8,0.1c9-0.2,18.7,3.4,28.6,9.8c-3.5,5.1-8.1,12.4-13.9,21.7
			C212.7,25.8,196.7,25.1,180.6,24.8z"/>
		<path fill="#FFFFFF" stroke="#607D8B" stroke-width="5" stroke-miterlimit="10" d="M155.5,59.9c8.4,13.2,17.5,27.8,26.7,43.2
			c-9,15.2-18.3,31.3-27.5,47.3c-18.4,0-36.6,0-53.7,0c-8.6-15.6-16.5-30.9-23.6-45.1c8.6-15.1,17.9-29.9,27.2-43.5
			C120.9,60.8,138.1,60.1,155.5,59.9z"/>
		<path fill="#FFFFFF" stroke="#607D8B" stroke-width="5" stroke-miterlimit="10" d="M11.3,278.8C5.2,268,1.1,255.7-0.8,243.2
			c1.6-7.9,2.4-16,3.6-25.1c4.2,3.6,11.5,6.8,21.2,9.5c6.7,13.3,14.6,26.1,23.5,37.5c-3.1,8.7-5.2,15.8-6.9,22.1
			C29.6,284.7,19.8,281.9,11.3,278.8z"/>
		<path fill="#FFFFFF" stroke="#607D8B" stroke-width="5" stroke-miterlimit="10" d="M24,73.2c3,10.5,6.9,22.3,11.9,35.3
			c-6.9,14.3-12.8,28.5-17.4,41.9c-9.3,0-15.8,0-18.5,0c-1.4-11.5-1.6-21.8-1.2-31c-0.3-11.5,1-24,4-36.7C7,79.2,14.3,76,24,73.2z"
			/>
		<path fill="#FFFFFF" stroke="#607D8B" stroke-width="5" stroke-miterlimit="10" d="M40.5,13.7c1.8,6.3,3.9,13.4,6.9,22.1
			C38.6,47.1,30.7,60,24,73.2C14.3,76,7,79.2,2.8,82.8c-1.2-9.1-2-17.2-3.6-25.1c1.8-12.5,5.9-24.9,12.1-35.6
			C19.8,18.9,29.6,16.1,40.5,13.7z"/>
		<path fill="#FFFFFF" stroke="#607D8B" stroke-width="5" stroke-miterlimit="10" d="M279.7,10.3c9.8,7.8,18.9,18.2,26.7,29.8
			c-2.3,8.5-5.3,18.1-9.4,29.3c-11.9-2.3-25.8-4.2-41-5.7c-9.2-13.6-18.8-26.2-28.2-36.7c5.8-9.3,10.5-16.6,14-21.7
			C255.1,6.6,267.8,8.3,279.7,10.3z"/>
		<path fill="#FFFFFF" stroke="#607D8B" stroke-width="5" stroke-miterlimit="10" d="M241.8,295.5c-3.5-5.1-8.1-12.4-14-21.7
			c9.5-10.5,19-23.1,28.2-36.7c15.2-1.5,29.1-3.4,41-5.7c4,11.1,7,20.8,9.4,29.3c-7.8,11.6-16.9,22-26.7,29.8
			C267.8,292.5,255.1,294.2,241.8,295.5z"/>
		<path fill="#FFFFFF" stroke="#607D8B" stroke-width="5" stroke-miterlimit="10" d="M297.1,69.4c7.9,13.4,14.8,27.5,20.4,41.3
			c-3.8,12.2-8.6,25.6-14.6,39.7c-11.9,0-26.2,0-42,0c-7.9-15.2-16.6-30.9-25.7-46.2c7.9-14.7,14.9-28.4,20.9-40.5
			C271.3,65.2,285.2,67.1,297.1,69.4z"/>
		<path fill="#FFFFFF" stroke="#607D8B" stroke-width="5" stroke-miterlimit="10" d="M157.8,2c6.6,5,14.3,12.8,22.8,22.9
			c-7.7,9.8-16.2,21.7-25.2,35.1c-17.4,0.2-34.6,0.9-50.9,1.9c-6.9-12.6-12.9-23.5-17.7-32.6c9.6-10.8,19.3-19.6,28.7-25.6
			C129.4,2.7,143.6,2.2,157.8,2z"/>
		<path fill="#FFFFFF" stroke="#607D8B" stroke-width="5" stroke-miterlimit="10" d="M77.4,105.3c7,14.2,15,29.5,23.6,45.1
			c-8.6,15.6-16.5,30.9-23.6,45.1c-15.6-0.8-29.8-1.9-41.7-3.3c-6.9-14.3-12.7-28.5-17.4-41.8c4.6-13.3,10.5-27.5,17.4-41.8
			C47.5,107.2,61.7,106.2,77.4,105.3z"/>
		<path fill="#FFFFFF" stroke="#607D8B" stroke-width="5" stroke-miterlimit="10" d="M235.2,104.2c9.1,15.3,17.8,31,25.7,46.2
			c-7.9,15.2-16.6,30.9-25.7,46.2c-16.9,0.6-34.9,1-53,1.1c-9-15.2-18.3-31.3-27.5-47.3c9.2-16,18.5-32,27.5-47.3
			C200.3,103.3,218.3,103.6,235.2,104.2z"/>
		<path fill="#FFFFFF" stroke="#607D8B" stroke-width="5" stroke-miterlimit="10" d="M336.7,116.2c2,12.4,2.6,23.9,2,34.3
			c0.6,10.3,0.1,21.9-2,34.3c-3.1,2.1-9.8,3.9-19.2,5.4c-3.8-12.2-8.6-25.6-14.6-39.7c6-14.1,10.8-27.5,14.6-39.7
			C326.9,112.3,333.5,114.1,336.7,116.2z"/>
		<path fill="#FFFFFF" stroke="#607D8B" stroke-width="5" stroke-miterlimit="10" d="M319.6-3.5c8.2,7.9,14.4,18.7,18,30.6
			c-3.3,8.4-5.1,15.9-6.7,24c-6-4.1-14.3-7.8-24.5-11c-7.8-11.6-16.9-22-26.7-29.8c2.1-5.8,3.4-10.2,4.7-14.3
			C296.2-3.8,307.9-3.7,319.6-3.5z"/>
		<path fill="#FFFFFF" stroke="#607D8B" stroke-width="5" stroke-miterlimit="10" d="M331,249.7c1.6,8.1,3.3,15.7,6.7,24
			c-3.7,11.9-9.8,22.7-18,30.6c-11.7,0.2-23.4,0.3-35.2,0.4c-1.3-4.1-2.6-8.5-4.7-14.3c9.8-7.8,18.9-18.2,26.7-29.8
			C316.6,257.5,325,253.9,331,249.7z"/>
	</g>
</g>
</svg>
